<mxfile host="localhost" modified="2024-03-01T02:12:04.146Z" agent="Mozilla/5.0 (Windows NT 10.0; Win64; x64) AppleWebKit/537.36 (KHTML, like Gecko) Chrome/121.0.0.0 Safari/537.36" etag="8th5t_9mWl_S30SgdKRo" version="22.1.7" type="device">
  <diagram name="第 1 页" id="TRwCUgz6afqM0yvlKxMz">
    <mxGraphModel dx="1050" dy="557" grid="1" gridSize="10" guides="1" tooltips="1" connect="1" arrows="1" fold="1" page="1" pageScale="1" pageWidth="827" pageHeight="1169" math="0" shadow="0">
      <root>
        <mxCell id="0" />
        <mxCell id="1" parent="0" />
        <mxCell id="IvTtCEhNoEbl9tgaz2_o-31" value="" style="group" parent="1" vertex="1" connectable="0">
          <mxGeometry x="114" y="90" width="661" height="430" as="geometry" />
        </mxCell>
        <mxCell id="IvTtCEhNoEbl9tgaz2_o-18" value="" style="rounded=1;whiteSpace=wrap;html=1;arcSize=5;imageHeight=24;" parent="IvTtCEhNoEbl9tgaz2_o-31" vertex="1">
          <mxGeometry x="116" width="450" height="430" as="geometry" />
        </mxCell>
        <mxCell id="IvTtCEhNoEbl9tgaz2_o-1" value="User" style="sketch=0;outlineConnect=0;fontColor=#232F3E;gradientColor=none;fillColor=#232F3D;strokeColor=none;dashed=0;verticalLabelPosition=bottom;verticalAlign=top;align=center;html=1;fontSize=12;fontStyle=0;aspect=fixed;pointerEvents=1;shape=mxgraph.aws4.user;" parent="IvTtCEhNoEbl9tgaz2_o-31" vertex="1">
          <mxGeometry y="41" width="78" height="78" as="geometry" />
        </mxCell>
        <mxCell id="IvTtCEhNoEbl9tgaz2_o-3" value="控制监听" style="rounded=1;whiteSpace=wrap;html=1;" parent="IvTtCEhNoEbl9tgaz2_o-31" vertex="1">
          <mxGeometry x="426" y="41" width="120" height="60" as="geometry" />
        </mxCell>
        <mxCell id="IvTtCEhNoEbl9tgaz2_o-4" value="用户监听" style="rounded=1;whiteSpace=wrap;html=1;" parent="IvTtCEhNoEbl9tgaz2_o-31" vertex="1">
          <mxGeometry x="141" y="50" width="120" height="60" as="geometry" />
        </mxCell>
        <mxCell id="IvTtCEhNoEbl9tgaz2_o-21" style="edgeStyle=orthogonalEdgeStyle;rounded=0;orthogonalLoop=1;jettySize=auto;html=1;" parent="IvTtCEhNoEbl9tgaz2_o-31" source="IvTtCEhNoEbl9tgaz2_o-1" target="IvTtCEhNoEbl9tgaz2_o-4" edge="1">
          <mxGeometry relative="1" as="geometry" />
        </mxCell>
        <mxCell id="IvTtCEhNoEbl9tgaz2_o-25" value="连接" style="edgeLabel;html=1;align=center;verticalAlign=middle;resizable=0;points=[];" parent="IvTtCEhNoEbl9tgaz2_o-21" vertex="1" connectable="0">
          <mxGeometry x="-0.1223" y="-3" relative="1" as="geometry">
            <mxPoint x="-4" y="-12" as="offset" />
          </mxGeometry>
        </mxCell>
        <mxCell id="IvTtCEhNoEbl9tgaz2_o-5" value="连接就绪" style="rhombus;whiteSpace=wrap;html=1;" parent="IvTtCEhNoEbl9tgaz2_o-31" vertex="1">
          <mxGeometry x="136" y="210" width="130" height="80" as="geometry" />
        </mxCell>
        <mxCell id="IvTtCEhNoEbl9tgaz2_o-22" style="edgeStyle=orthogonalEdgeStyle;rounded=0;orthogonalLoop=1;jettySize=auto;html=1;entryX=0.5;entryY=0;entryDx=0;entryDy=0;" parent="IvTtCEhNoEbl9tgaz2_o-31" source="IvTtCEhNoEbl9tgaz2_o-4" target="IvTtCEhNoEbl9tgaz2_o-5" edge="1">
          <mxGeometry relative="1" as="geometry" />
        </mxCell>
        <mxCell id="IvTtCEhNoEbl9tgaz2_o-6" value="组成隧道" style="rounded=1;whiteSpace=wrap;html=1;" parent="IvTtCEhNoEbl9tgaz2_o-31" vertex="1">
          <mxGeometry x="141" y="339" width="120" height="60" as="geometry" />
        </mxCell>
        <mxCell id="IvTtCEhNoEbl9tgaz2_o-24" style="edgeStyle=orthogonalEdgeStyle;rounded=0;orthogonalLoop=1;jettySize=auto;html=1;entryX=0.5;entryY=0;entryDx=0;entryDy=0;" parent="IvTtCEhNoEbl9tgaz2_o-31" source="IvTtCEhNoEbl9tgaz2_o-5" target="IvTtCEhNoEbl9tgaz2_o-6" edge="1">
          <mxGeometry relative="1" as="geometry" />
        </mxCell>
        <mxCell id="IvTtCEhNoEbl9tgaz2_o-7" value="是否控制连接" style="rhombus;whiteSpace=wrap;html=1;" parent="IvTtCEhNoEbl9tgaz2_o-31" vertex="1">
          <mxGeometry x="411" y="210" width="150" height="80" as="geometry" />
        </mxCell>
        <mxCell id="IvTtCEhNoEbl9tgaz2_o-28" value="" style="edgeStyle=orthogonalEdgeStyle;rounded=0;orthogonalLoop=1;jettySize=auto;html=1;" parent="IvTtCEhNoEbl9tgaz2_o-31" source="IvTtCEhNoEbl9tgaz2_o-8" target="IvTtCEhNoEbl9tgaz2_o-7" edge="1">
          <mxGeometry relative="1" as="geometry" />
        </mxCell>
        <mxCell id="IvTtCEhNoEbl9tgaz2_o-8" value="检查请求类型" style="rounded=1;whiteSpace=wrap;html=1;" parent="IvTtCEhNoEbl9tgaz2_o-31" vertex="1">
          <mxGeometry x="426" y="119" width="120" height="60" as="geometry" />
        </mxCell>
        <mxCell id="IvTtCEhNoEbl9tgaz2_o-27" value="" style="edgeStyle=orthogonalEdgeStyle;rounded=0;orthogonalLoop=1;jettySize=auto;html=1;" parent="IvTtCEhNoEbl9tgaz2_o-31" source="IvTtCEhNoEbl9tgaz2_o-3" target="IvTtCEhNoEbl9tgaz2_o-8" edge="1">
          <mxGeometry relative="1" as="geometry" />
        </mxCell>
        <mxCell id="IvTtCEhNoEbl9tgaz2_o-20" style="edgeStyle=orthogonalEdgeStyle;rounded=0;orthogonalLoop=1;jettySize=auto;html=1;" parent="IvTtCEhNoEbl9tgaz2_o-31" source="IvTtCEhNoEbl9tgaz2_o-29" target="IvTtCEhNoEbl9tgaz2_o-3" edge="1">
          <mxGeometry relative="1" as="geometry">
            <mxPoint x="616" y="71" as="sourcePoint" />
          </mxGeometry>
        </mxCell>
        <mxCell id="IvTtCEhNoEbl9tgaz2_o-26" value="连接" style="edgeLabel;html=1;align=center;verticalAlign=middle;resizable=0;points=[];" parent="IvTtCEhNoEbl9tgaz2_o-20" vertex="1" connectable="0">
          <mxGeometry x="-0.1371" y="-1" relative="1" as="geometry">
            <mxPoint x="3" y="-9" as="offset" />
          </mxGeometry>
        </mxCell>
        <mxCell id="IvTtCEhNoEbl9tgaz2_o-23" style="edgeStyle=orthogonalEdgeStyle;rounded=0;orthogonalLoop=1;jettySize=auto;html=1;entryX=1;entryY=0.5;entryDx=0;entryDy=0;" parent="IvTtCEhNoEbl9tgaz2_o-31" source="IvTtCEhNoEbl9tgaz2_o-10" target="IvTtCEhNoEbl9tgaz2_o-5" edge="1">
          <mxGeometry relative="1" as="geometry" />
        </mxCell>
        <mxCell id="IvTtCEhNoEbl9tgaz2_o-10" value="发送工作连接到隧道" style="rounded=1;whiteSpace=wrap;html=1;" parent="IvTtCEhNoEbl9tgaz2_o-31" vertex="1">
          <mxGeometry x="292.5" y="220" width="85" height="60" as="geometry" />
        </mxCell>
        <mxCell id="IvTtCEhNoEbl9tgaz2_o-11" style="edgeStyle=orthogonalEdgeStyle;rounded=0;orthogonalLoop=1;jettySize=auto;html=1;entryX=1;entryY=0.5;entryDx=0;entryDy=0;exitX=0;exitY=0.5;exitDx=0;exitDy=0;" parent="IvTtCEhNoEbl9tgaz2_o-31" source="IvTtCEhNoEbl9tgaz2_o-7" target="IvTtCEhNoEbl9tgaz2_o-10" edge="1">
          <mxGeometry relative="1" as="geometry" />
        </mxCell>
        <mxCell id="IvTtCEhNoEbl9tgaz2_o-14" value="工作连接" style="edgeLabel;align=center;verticalAlign=middle;resizable=0;points=[];rotation=270;direction=south;html=1;" parent="IvTtCEhNoEbl9tgaz2_o-11" vertex="1" connectable="0">
          <mxGeometry x="0.0606" y="-2" relative="1" as="geometry">
            <mxPoint x="4" as="offset" />
          </mxGeometry>
        </mxCell>
        <mxCell id="IvTtCEhNoEbl9tgaz2_o-15" value="处理心跳等控制功能" style="rounded=1;whiteSpace=wrap;html=1;" parent="IvTtCEhNoEbl9tgaz2_o-31" vertex="1">
          <mxGeometry x="426" y="339" width="120" height="60" as="geometry" />
        </mxCell>
        <mxCell id="IvTtCEhNoEbl9tgaz2_o-16" style="edgeStyle=orthogonalEdgeStyle;rounded=0;orthogonalLoop=1;jettySize=auto;html=1;entryX=0.5;entryY=0;entryDx=0;entryDy=0;" parent="IvTtCEhNoEbl9tgaz2_o-31" source="IvTtCEhNoEbl9tgaz2_o-7" target="IvTtCEhNoEbl9tgaz2_o-15" edge="1">
          <mxGeometry relative="1" as="geometry" />
        </mxCell>
        <mxCell id="IvTtCEhNoEbl9tgaz2_o-17" value="控制连接" style="edgeLabel;html=1;align=center;verticalAlign=middle;resizable=0;points=[];" parent="IvTtCEhNoEbl9tgaz2_o-16" vertex="1" connectable="0">
          <mxGeometry x="0.1568" y="1" relative="1" as="geometry">
            <mxPoint y="-5" as="offset" />
          </mxGeometry>
        </mxCell>
        <mxCell id="IvTtCEhNoEbl9tgaz2_o-19" value="frps" style="text;html=1;align=center;verticalAlign=middle;resizable=0;points=[];autosize=1;strokeColor=none;fillColor=none;" parent="IvTtCEhNoEbl9tgaz2_o-31" vertex="1">
          <mxGeometry x="321" y="11" width="40" height="30" as="geometry" />
        </mxCell>
        <mxCell id="IvTtCEhNoEbl9tgaz2_o-29" value="Frpc" style="sketch=0;outlineConnect=0;fontColor=#232F3E;gradientColor=none;fillColor=#232F3D;strokeColor=none;dashed=0;verticalLabelPosition=bottom;verticalAlign=top;align=center;html=1;fontSize=12;fontStyle=0;aspect=fixed;pointerEvents=1;shape=mxgraph.aws4.traditional_server;" parent="IvTtCEhNoEbl9tgaz2_o-31" vertex="1">
          <mxGeometry x="616" y="32" width="45" height="78" as="geometry" />
        </mxCell>
        <mxCell id="VdNpvFHvbI3Hv3-3Iuko-2" value="frps" style="rounded=1;whiteSpace=wrap;html=1;absoluteArcSize=1;arcSize=14;strokeWidth=2;fontSize=14;" vertex="1" parent="1">
          <mxGeometry x="92" y="870" width="88" height="50" as="geometry" />
        </mxCell>
        <mxCell id="VdNpvFHvbI3Hv3-3Iuko-8" style="edgeStyle=orthogonalEdgeStyle;rounded=0;orthogonalLoop=1;jettySize=auto;html=1;entryX=1;entryY=0.5;entryDx=0;entryDy=0;fontSize=14;" edge="1" parent="1" source="VdNpvFHvbI3Hv3-3Iuko-3" target="VdNpvFHvbI3Hv3-3Iuko-2">
          <mxGeometry relative="1" as="geometry" />
        </mxCell>
        <mxCell id="VdNpvFHvbI3Hv3-3Iuko-11" style="edgeStyle=orthogonalEdgeStyle;rounded=0;orthogonalLoop=1;jettySize=auto;html=1;fontSize=14;" edge="1" parent="1" source="VdNpvFHvbI3Hv3-3Iuko-3" target="VdNpvFHvbI3Hv3-3Iuko-20">
          <mxGeometry relative="1" as="geometry">
            <mxPoint x="530" y="840" as="targetPoint" />
          </mxGeometry>
        </mxCell>
        <mxCell id="VdNpvFHvbI3Hv3-3Iuko-15" value="" style="edgeStyle=orthogonalEdgeStyle;rounded=0;orthogonalLoop=1;jettySize=auto;html=1;fontSize=14;" edge="1" parent="1" source="VdNpvFHvbI3Hv3-3Iuko-3" target="VdNpvFHvbI3Hv3-3Iuko-4">
          <mxGeometry relative="1" as="geometry" />
        </mxCell>
        <mxCell id="VdNpvFHvbI3Hv3-3Iuko-3" value="控制连接到服务器" style="rounded=1;whiteSpace=wrap;html=1;fontSize=14;" vertex="1" parent="1">
          <mxGeometry x="320" y="810" width="120" height="60" as="geometry" />
        </mxCell>
        <mxCell id="VdNpvFHvbI3Hv3-3Iuko-9" style="edgeStyle=orthogonalEdgeStyle;rounded=0;orthogonalLoop=1;jettySize=auto;html=1;entryX=1;entryY=0.5;entryDx=0;entryDy=0;fontSize=14;" edge="1" parent="1" source="VdNpvFHvbI3Hv3-3Iuko-4" target="VdNpvFHvbI3Hv3-3Iuko-2">
          <mxGeometry relative="1" as="geometry" />
        </mxCell>
        <mxCell id="VdNpvFHvbI3Hv3-3Iuko-16" value="" style="edgeStyle=orthogonalEdgeStyle;rounded=0;orthogonalLoop=1;jettySize=auto;html=1;fontSize=14;" edge="1" parent="1" source="VdNpvFHvbI3Hv3-3Iuko-4" target="VdNpvFHvbI3Hv3-3Iuko-5">
          <mxGeometry relative="1" as="geometry" />
        </mxCell>
        <mxCell id="VdNpvFHvbI3Hv3-3Iuko-4" value="工作连接到服务器" style="rounded=1;whiteSpace=wrap;html=1;fontSize=14;" vertex="1" parent="1">
          <mxGeometry x="320" y="910" width="120" height="60" as="geometry" />
        </mxCell>
        <mxCell id="VdNpvFHvbI3Hv3-3Iuko-13" style="edgeStyle=orthogonalEdgeStyle;rounded=0;orthogonalLoop=1;jettySize=auto;html=1;entryX=0;entryY=0.5;entryDx=0;entryDy=0;fontSize=14;" edge="1" parent="1" source="VdNpvFHvbI3Hv3-3Iuko-5" target="VdNpvFHvbI3Hv3-3Iuko-12">
          <mxGeometry relative="1" as="geometry" />
        </mxCell>
        <mxCell id="VdNpvFHvbI3Hv3-3Iuko-17" value="" style="edgeStyle=orthogonalEdgeStyle;rounded=0;orthogonalLoop=1;jettySize=auto;html=1;fontSize=14;" edge="1" parent="1" source="VdNpvFHvbI3Hv3-3Iuko-5" target="VdNpvFHvbI3Hv3-3Iuko-6">
          <mxGeometry relative="1" as="geometry" />
        </mxCell>
        <mxCell id="VdNpvFHvbI3Hv3-3Iuko-5" value="目标连接到服务器" style="rounded=1;whiteSpace=wrap;html=1;fontSize=14;" vertex="1" parent="1">
          <mxGeometry x="320" y="1010" width="120" height="60" as="geometry" />
        </mxCell>
        <mxCell id="VdNpvFHvbI3Hv3-3Iuko-19" value="" style="edgeStyle=orthogonalEdgeStyle;rounded=0;orthogonalLoop=1;jettySize=auto;html=1;fontSize=14;" edge="1" parent="1" source="VdNpvFHvbI3Hv3-3Iuko-6" target="VdNpvFHvbI3Hv3-3Iuko-18">
          <mxGeometry relative="1" as="geometry" />
        </mxCell>
        <mxCell id="VdNpvFHvbI3Hv3-3Iuko-6" value="工作连接和目标连接组成隧洞" style="rounded=1;whiteSpace=wrap;html=1;fontSize=14;" vertex="1" parent="1">
          <mxGeometry x="320" y="1109" width="120" height="60" as="geometry" />
        </mxCell>
        <mxCell id="VdNpvFHvbI3Hv3-3Iuko-14" value="" style="edgeStyle=orthogonalEdgeStyle;rounded=0;orthogonalLoop=1;jettySize=auto;html=1;fontSize=14;" edge="1" parent="1" source="VdNpvFHvbI3Hv3-3Iuko-7" target="VdNpvFHvbI3Hv3-3Iuko-3">
          <mxGeometry relative="1" as="geometry" />
        </mxCell>
        <mxCell id="VdNpvFHvbI3Hv3-3Iuko-7" value="frpc 启动" style="strokeWidth=2;html=1;shape=mxgraph.flowchart.terminator;whiteSpace=wrap;fontSize=14;" vertex="1" parent="1">
          <mxGeometry x="330" y="720" width="100" height="60" as="geometry" />
        </mxCell>
        <mxCell id="VdNpvFHvbI3Hv3-3Iuko-12" value="目标服务器" style="rounded=1;whiteSpace=wrap;html=1;absoluteArcSize=1;arcSize=14;strokeWidth=2;fontSize=14;" vertex="1" parent="1">
          <mxGeometry x="500" y="1014.5" width="100" height="51" as="geometry" />
        </mxCell>
        <mxCell id="VdNpvFHvbI3Hv3-3Iuko-18" value="结束" style="strokeWidth=2;html=1;shape=mxgraph.flowchart.terminator;whiteSpace=wrap;fontSize=14;" vertex="1" parent="1">
          <mxGeometry x="330" y="1200" width="100" height="60" as="geometry" />
        </mxCell>
        <mxCell id="VdNpvFHvbI3Hv3-3Iuko-20" value="发送心跳" style="rounded=1;whiteSpace=wrap;html=1;fontSize=14;" vertex="1" parent="1">
          <mxGeometry x="500" y="810" width="90" height="60" as="geometry" />
        </mxCell>
      </root>
    </mxGraphModel>
  </diagram>
</mxfile>
